<?xml version="1.0" encoding="utf-8"?>
<svg version="1.1" xmlns:xlink="http://www.w3.org/1999/xlink" width="40px" height="40px" xmlns="http://www.w3.org/2000/svg">
  <g transform="matrix(1 0 0 1 -38 -431 )">
    <path d="M 58 431  C 69.2 431  78 439.8  78 451  C 78 462.2  69.2 471  58 471  C 46.8 471  38 462.2  38 451  C 38 439.8  46.8 431  58 431  Z " fill-rule="nonzero" fill="#ffffff" stroke="none" />
    <path d="M 58 431.5  C 68.92 431.5  77.5 440.08  77.5 451  C 77.5 461.92  68.92 470.5  58 470.5  C 47.08 470.5  38.5 461.92  38.5 451  C 38.5 440.08  47.08 431.5  58 431.5  Z " stroke-width="1" stroke="#797979" fill="none" />
  </g>
</svg>