<?xml version="1.0" encoding="utf-8"?>
<svg version="1.1" xmlns:xlink="http://www.w3.org/1999/xlink" width="40px" height="50px" xmlns="http://www.w3.org/2000/svg">
  <defs>
    <filter x="453px" y="25px" width="40px" height="50px" filterUnits="userSpaceOnUse" id="filter1">
      <feOffset dx="1" dy="1" in="SourceAlpha" result="shadowOffsetInner" />
      <feGaussianBlur stdDeviation="2.5" in="shadowOffsetInner" result="shadowGaussian" />
      <feComposite in2="shadowGaussian" operator="atop" in="SourceAlpha" result="shadowComposite" />
      <feColorMatrix type="matrix" values="0 0 0 0 0  0 0 0 0 0  0 0 0 0 0  0 0 0 0.698039215686274 0  " in="shadowComposite" />
    </filter>
    <g id="widget2">
      <path d="M 472 68.0369284683536  C 466.2 58.4073405959099  457.5 52.6295878724437  457.5 43  C 457.5 37.9857142857143  460.4 29.5  472 29.5  C 483.6 29.5  486.5 37.9857142857143  486.5 43  C 486.5 52.6295878724437  477.8 58.4073405959099  472 68.0369284683536  Z " fill-rule="nonzero" fill="#009dd9" stroke="none" />
      <path d="M 472 69  C 466 59  457 53  457 43  C 457 37.8  460 29  472 29  C 484 29  487 37.8  487 43  C 487 53  478 59  472 69  Z M 472 67.0738569367072  C 477.6 57.8146811918198  486 52.2591757448874  486 43  C 486 38.1714285714286  483.2 30  472 30  C 460.8 30  458 38.1714285714286  458 43  C 458 52.2591757448874  466.4 57.8146811918198  472 67.0738569367072  Z " fill-rule="nonzero" fill="#ffffff" stroke="none" />
    </g>
  </defs>
  <g transform="matrix(1 0 0 1 -453 -25 )">
    <use xlink:href="#widget2" filter="url(#filter1)" />
    <use xlink:href="#widget2" />
  </g>
</svg>